<svg xmlns="http://www.w3.org/2000/svg" width="332" height="51" viewBox="0 0 332 51" fill="none"><path fill-rule="evenodd" clip-rule="evenodd" d="M52.2287 38.4087C50.5978 34.6675 44.1385 29.4044 33.9239 27.2484C27.9153 25.9802 20.5976 25.7688 12.207 27.5866C14.9538 24.0356 15.2972 23.6762 15.2972 23.6762C15.2972 23.6762 23.9238 22.4503 33.0441 24.3738C40.6836 25.9802 48.6879 29.806 52.2502 38.4087" fill="#77C198"></path><path fill-rule="evenodd" clip-rule="evenodd" d="M92.4436 27.5862C84.053 25.7896 76.7353 25.9798 70.7267 27.248C69.4391 27.5228 68.2374 27.8398 67.0786 28.1992C66.7996 28.2837 66.4992 28.3894 66.2202 28.4739C66.0915 28.5162 65.9413 28.5585 65.8125 28.6219C65.6194 28.6853 65.4262 28.7487 65.2331 28.8333C65.1258 28.8755 64.9971 28.9178 64.8898 28.9601C64.7825 29.0024 64.6752 29.0446 64.5893 29.0658C64.1816 29.2137 63.7953 29.3828 63.4091 29.5519C63.1086 29.6788 62.8297 29.8056 62.5292 29.9324C62.4005 29.9958 62.2932 30.0381 62.1644 30.1015C61.9713 30.186 61.7567 30.2917 61.5636 30.3974C61.4563 30.4608 61.3275 30.5242 61.2202 30.5665C60.7481 30.799 60.2975 31.0527 59.8897 31.2852C59.8039 31.3274 59.6966 31.3908 59.6108 31.4543C58.9026 31.877 58.2374 32.2997 57.615 32.7436C57.5507 32.7859 57.4863 32.8282 57.4219 32.8916C57.3575 32.9338 57.3146 32.9761 57.2502 33.0184C57.1644 33.0818 57.0786 33.1452 56.9927 33.2086C56.9069 33.272 56.821 33.3354 56.7352 33.3989C56.5635 33.5257 56.4133 33.6525 56.2416 33.8005C56.07 33.9273 55.9197 34.0541 55.7695 34.2021C55.6837 34.2655 55.6193 34.3289 55.5549 34.3923C55.4906 34.4557 55.4047 34.5191 55.3403 34.5825C55.276 34.6459 55.2116 34.7093 55.1257 34.7728C55.0614 34.8362 54.997 34.8996 54.9112 34.963C54.7824 35.0898 54.6536 35.2166 54.5249 35.3646C54.3961 35.4914 54.2888 35.6182 54.1815 35.7451C54.1815 35.7451 54.1815 35.7451 54.1815 35.7662C54.0099 35.9564 53.8382 36.1467 53.688 36.358C53.5807 36.4848 53.4948 36.6117 53.3875 36.7385C53.1944 36.9921 53.0442 37.2458 52.894 37.4994C52.8511 37.5628 52.8296 37.6262 52.7867 37.6897C52.7438 37.7531 52.7223 37.8165 52.6794 37.8799C52.6365 37.9433 52.615 37.9856 52.5935 38.049C52.5292 38.1758 52.4648 38.3026 52.4219 38.4294C55.9841 29.8267 63.967 26.0009 71.628 24.3945C80.7482 22.4711 89.3749 23.697 89.3749 23.697C89.3749 23.697 89.7182 24.0352 92.465 27.6073" fill="#77C198"></path><mask id="mask0_147_2728" style="mask-type:luminance" maskUnits="userSpaceOnUse" x="52" y="36" width="2" height="2"><path d="M52.873 37.4997C53.0233 37.2461 53.1949 36.9924 53.3666 36.7388C53.1735 36.9924 53.0233 37.2461 52.873 37.4997Z" fill="white"></path></mask><g mask="url(#mask0_147_2728)"><path d="M52.8756 36.7318L52.873 37.4927L53.3666 37.4943L53.3692 36.7334L52.8756 36.7318Z" fill="url(#paint0_linear_147_2728)"></path></g><mask id="mask1_147_2728" style="mask-type:luminance" maskUnits="userSpaceOnUse" x="53" y="35" width="2" height="2"><path d="M53.666 36.3584C53.8162 36.1682 53.9879 35.978 54.1596 35.7666C53.9879 35.9568 53.8162 36.1471 53.666 36.3584Z" fill="white"></path></mask><g mask="url(#mask1_147_2728)"><path d="M53.6719 35.7563L53.6699 36.3481L54.1635 36.3498L54.1655 35.7579L53.6719 35.7563Z" fill="url(#paint1_linear_147_2728)"></path></g><path d="M72.0789 20.1462C72.0789 21.5835 71.9287 22.9997 71.6068 24.3524C63.9458 25.9588 55.9629 29.7846 52.4007 38.3873C52.3792 38.4508 52.3363 38.5353 52.3148 38.5987C52.2934 38.5353 52.2719 38.4719 52.229 38.3873C48.6668 29.7846 40.6839 25.9588 33.0229 24.3524C32.7225 22.9997 32.5508 21.5835 32.5508 20.1462C32.5508 19.808 32.5508 19.4698 32.5722 19.1316C32.8083 14.7563 34.5036 10.7825 37.186 7.63311C37.6366 7.10469 38.1302 6.5974 38.6452 6.11125C41.7568 3.17322 45.8341 1.22862 50.362 0.784743C51.0058 0.721332 51.6496 0.700195 52.3148 0.700195H52.4865C57.272 0.742469 61.6497 2.45456 65.0617 5.28691C65.5982 5.73079 66.1132 6.21694 66.6068 6.72422C69.7828 9.97931 71.7999 14.3335 72.0574 19.1527C72.0574 19.4909 72.0789 19.8291 72.0789 20.1673" fill="#F9AF17"></path><path d="M102.637 38.4931C101.349 38.1127 70.8987 29.0872 57.508 42.7205C57.3578 42.8685 57.2505 43.0376 57.1647 43.2489C55.8127 46.4617 55.1046 47.2649 52.3363 47.2649C49.5681 47.2649 48.8599 46.4617 47.508 43.2489C47.4221 43.0587 47.3148 42.8896 47.1646 42.7205C33.7525 29.1083 3.30171 38.1127 2.01415 38.4931C1.13431 38.7679 0.640747 39.6768 0.898259 40.5434C1.17723 41.41 2.09998 41.8962 2.97982 41.6425C3.28025 41.558 32.4006 32.9341 44.5251 44.7919C45.92 48.0682 47.4865 50.5412 52.3149 50.5412C57.1432 50.5412 58.7098 48.0682 60.1046 44.7919C72.2291 32.9341 101.349 41.5368 101.65 41.6425C102.53 41.9173 103.474 41.41 103.731 40.5434C104.01 39.6768 103.517 38.7468 102.616 38.4931" fill="#162D4A"></path><path fill-rule="evenodd" clip-rule="evenodd" d="M50.941 42.8892C50.0398 41.5575 48.7736 40.2048 47.1642 38.9366C44.9968 37.2245 42.2285 35.6181 38.8594 34.3921C30.2542 31.2216 17.8293 30.2916 2.05664 35.2376C4.20258 32.3841 4.80344 31.4541 4.91073 31.2004C6.7777 30.6932 22.4859 26.6137 35.7049 30.672C40.662 32.1939 45.2543 34.8571 48.6449 39.2748C49.4818 40.3739 50.2543 41.5787 50.941 42.8892Z" fill="#2AAA5B"></path><path fill-rule="evenodd" clip-rule="evenodd" d="M52.2287 38.4087C50.5978 34.6675 44.1385 29.4044 33.9239 27.2484C27.9153 25.9802 20.5976 25.7688 12.207 27.5866C14.9538 24.0356 15.2972 23.6762 15.2972 23.6762C15.2972 23.6762 23.9238 22.4503 33.0441 24.3738C40.6836 25.9802 48.6879 29.806 52.2502 38.4087" fill="#77C198"></path><path fill-rule="evenodd" clip-rule="evenodd" d="M102.572 35.217C86.8208 30.271 74.3743 31.201 65.7906 34.3715C62.4215 35.6186 59.6532 37.2039 57.4858 38.916C55.8764 40.1842 54.6103 41.5369 53.709 42.8686C54.3957 41.5581 55.1468 40.3533 56.0051 39.2542C59.3957 34.8365 64.0095 32.1733 68.9451 30.6514C82.1641 26.5931 97.8938 30.6514 99.7393 31.1798C99.8466 31.4335 100.447 32.3635 102.593 35.217" fill="#2AAA5B"></path><path fill-rule="evenodd" clip-rule="evenodd" d="M99.9118 31.2431C99.9118 31.2431 99.8475 31.2431 99.7402 31.2008C99.6543 30.9894 99.9118 31.2431 99.9118 31.2431Z" fill="#2AAA5B"></path><path fill-rule="evenodd" clip-rule="evenodd" d="M92.4436 27.5862C84.053 25.7896 76.7353 25.9798 70.7267 27.248C69.4391 27.5228 68.2374 27.8398 67.0786 28.1992C66.7996 28.2837 66.4992 28.3894 66.2202 28.4739C66.0915 28.5162 65.9413 28.5585 65.8125 28.6219C65.6194 28.6853 65.4262 28.7487 65.2331 28.8333C65.1258 28.8755 64.9971 28.9178 64.8898 28.9601C64.7825 29.0024 64.6752 29.0446 64.5893 29.0658C64.1816 29.2137 63.7953 29.3828 63.4091 29.5519C63.1086 29.6788 62.8297 29.8056 62.5292 29.9324C62.4005 29.9958 62.2932 30.0381 62.1644 30.1015C61.9713 30.186 61.7567 30.2917 61.5636 30.3974C61.4563 30.4608 61.3275 30.5242 61.2202 30.5665C60.7481 30.799 60.2975 31.0527 59.8897 31.2852C59.8039 31.3274 59.6966 31.3908 59.6108 31.4543C58.9026 31.877 58.2374 32.2997 57.615 32.7436C57.5507 32.7859 57.4863 32.8282 57.4219 32.8916C57.3575 32.9338 57.3146 32.9761 57.2502 33.0184C57.1644 33.0818 57.0786 33.1452 56.9927 33.2086C56.9069 33.272 56.821 33.3354 56.7352 33.3989C56.5635 33.5257 56.4133 33.6525 56.2416 33.8005C56.07 33.9273 55.9197 34.0541 55.7695 34.2021C55.6837 34.2655 55.6193 34.3289 55.5549 34.3923C55.4906 34.4557 55.4047 34.5191 55.3403 34.5825C55.276 34.6459 55.2116 34.7093 55.1257 34.7728C55.0614 34.8362 54.997 34.8996 54.9112 34.963C54.7824 35.0898 54.6536 35.2166 54.5249 35.3646C54.3961 35.4914 54.2888 35.6182 54.1815 35.7451C54.1815 35.7451 54.1815 35.7451 54.1815 35.7662C54.0099 35.9564 53.8382 36.1467 53.688 36.358C53.5807 36.4848 53.4948 36.6117 53.3875 36.7385C53.1944 36.9921 53.0442 37.2458 52.894 37.4994C52.8511 37.5628 52.8296 37.6262 52.7867 37.6897C52.7438 37.7531 52.7223 37.8165 52.6794 37.8799C52.6365 37.9433 52.615 37.9856 52.5935 38.049C52.5292 38.1758 52.4648 38.3026 52.4219 38.4294C55.9841 29.8267 63.967 26.0009 71.628 24.3945C80.7482 22.4711 89.3749 23.697 89.3749 23.697C89.3749 23.697 89.7182 24.0352 92.465 27.6073" fill="#77C198"></path><path fill-rule="evenodd" clip-rule="evenodd" d="M52.8077 35.9993V28.0729C52.8077 21.3725 52.5072 20.823 56.1339 19.9986C58.4729 19.4702 59.6961 16.3842 60.2755 13.6153C54.5459 13.0023 51.327 15.7078 51.327 20.1466C53.0223 17.589 54.7819 16.511 57.0781 16.0037C53.0008 17.7158 51.4987 20.4002 51.8205 23.5708C51.6489 22.9578 48.6231 17.9483 40.2969 19.8084C42.1424 24.6487 46.6703 27.5445 51.3914 25.5788C49.5673 23.4228 46.327 22.1546 44.3098 21.6473C47.078 21.753 49.7605 23.1269 51.6703 25.2406V35.9993L52.2497 37.0984L52.7862 35.9781L52.8077 35.9993Z" fill="#162D4A"></path><path d="M140.6 34.9632H130.02L128.325 39.8459H120.428L131.286 11.7549H139.376L150.235 39.8459H142.338L140.642 34.9632H140.6ZM138.625 29.4254L135.299 20.0828L131.973 29.4254H138.625Z" fill="#162D4A"></path><path d="M172.659 20.7384V38.5357C172.659 39.6137 172.595 40.5648 172.466 41.4103C172.337 42.2558 172.166 42.9956 171.93 43.6508C171.629 44.4752 171.157 45.2361 170.513 45.9336C169.87 46.6523 169.097 47.2441 168.196 47.7725C167.295 48.3009 166.264 48.7025 165.106 48.9985C163.947 49.2944 162.724 49.4423 161.372 49.4423C159.848 49.4423 158.475 49.2521 157.209 48.8928C155.943 48.5123 154.848 48.005 153.904 47.3498C152.96 46.6945 152.187 45.9336 151.586 45.0459C150.985 44.1581 150.578 43.2069 150.385 42.1501H158.11C158.582 43.4183 159.676 44.0524 161.372 44.0524C162.81 44.0524 163.904 43.6508 164.676 42.8688C165.449 42.0656 165.835 40.9664 165.835 39.5503V37.7325C165.342 38.1975 164.848 38.5991 164.376 38.895C163.904 39.2121 163.432 39.4657 162.96 39.6559C162.488 39.8462 161.973 39.9941 161.458 40.0787C160.921 40.1632 160.342 40.2055 159.719 40.2055C158.325 40.2055 157.058 39.973 155.9 39.508C154.741 39.043 153.732 38.3877 152.895 37.5422C152.058 36.6968 151.393 35.6822 150.921 34.4985C150.449 33.3149 150.213 32.0044 150.213 30.5671C150.213 29.1297 150.47 27.7347 150.964 26.4876C151.458 25.2406 152.166 24.1414 153.024 23.2114C153.882 22.2814 154.934 21.5416 156.114 21.0132C157.316 20.4847 158.625 20.21 160.02 20.21C162.316 20.21 164.247 21.0554 165.814 22.7464V20.7384H172.659ZM157.316 30.2077C157.316 30.8207 157.423 31.4125 157.659 31.941C157.895 32.4694 158.196 32.9344 158.582 33.336C158.968 33.7376 159.44 34.0547 159.977 34.266C160.513 34.4774 161.114 34.6042 161.737 34.6042C162.359 34.6042 162.917 34.4985 163.453 34.266C163.99 34.0335 164.462 33.7376 164.848 33.336C165.234 32.9344 165.556 32.4694 165.792 31.941C166.028 31.4125 166.157 30.8418 166.157 30.25C166.157 29.6582 166.028 29.0663 165.792 28.5379C165.556 28.0095 165.234 27.5656 164.827 27.164C164.419 26.7624 163.947 26.4454 163.41 26.234C162.874 26.0015 162.316 25.8958 161.737 25.8958C161.157 25.8958 160.556 26.0226 160.041 26.2551C159.505 26.4876 159.054 26.8047 158.646 27.1851C158.239 27.5656 157.917 28.0306 157.681 28.5379C157.445 29.0663 157.316 29.6159 157.316 30.2077Z" fill="#162D4A"></path><path d="M176.242 20.7385H183.088V23.8668C183.817 22.7254 184.719 21.8588 185.77 21.2458C186.822 20.6328 188.066 20.3369 189.483 20.3369H190.062C190.277 20.3369 190.513 20.3581 190.792 20.4003V26.8471C189.89 26.4032 188.903 26.1707 187.852 26.1707C186.264 26.1707 185.062 26.6357 184.289 27.5657C183.495 28.4958 183.088 29.8485 183.088 31.6452V39.8463H176.242V20.7385Z" fill="#162D4A"></path><path d="M191.908 13.3825C191.908 12.8541 192.015 12.368 192.209 11.9029C192.402 11.4379 192.681 11.0363 193.046 10.6981C193.41 10.3599 193.818 10.0852 194.269 9.8738C194.741 9.68357 195.234 9.57788 195.771 9.57788C196.307 9.57788 196.801 9.68357 197.273 9.8738C197.745 10.064 198.153 10.3388 198.496 10.6981C198.84 11.0363 199.119 11.4591 199.333 11.9029C199.526 12.368 199.634 12.8541 199.634 13.3825C199.634 13.911 199.526 14.3971 199.333 14.8621C199.14 15.3271 198.861 15.7287 198.496 16.0669C198.131 16.4051 197.724 16.6799 197.273 16.8913C196.801 17.0815 196.307 17.1872 195.771 17.1872C195.234 17.1872 194.741 17.0815 194.269 16.8913C193.797 16.701 193.389 16.4262 193.046 16.0669C192.702 15.7287 192.423 15.3271 192.209 14.8621C192.015 14.3971 191.908 13.911 191.908 13.3825Z" fill="#F9AF17"></path><path d="M199.226 20.738H192.381V39.8458H199.226V20.738Z" fill="#162D4A"></path><path d="M225.385 34.9632H214.784L213.088 39.8459H205.191L216.05 11.7549H224.14L234.998 39.8459H227.101L225.406 34.9632H225.385ZM223.41 29.4254L220.084 20.0828L216.758 29.4254H223.41Z" fill="#162D4A"></path><path d="M238.347 20.738L243.003 30.7781L247.853 20.738H252.166L256.995 31.074L261.866 20.738H269.484L259.334 39.8458H254.763L249.935 29.3619L245.321 39.8458H240.664L230.707 20.738H238.347Z" fill="#162D4A"></path><path d="M284.376 20.7379H291.265V39.8457H284.376V37.732C282.917 39.5498 280.943 40.4587 278.432 40.4587C277.016 40.4587 275.728 40.205 274.526 39.6978C273.346 39.1905 272.316 38.4718 271.415 37.5629C270.535 36.654 269.848 35.5549 269.355 34.329C268.861 33.0819 268.625 31.7291 268.625 30.2707C268.625 28.8968 268.861 27.6074 269.355 26.3815C269.827 25.1556 270.492 24.0776 271.35 23.1475C272.209 22.2387 273.239 21.4989 274.419 20.9704C275.599 20.442 276.908 20.1672 278.346 20.1672C280.771 20.1672 282.767 20.9916 284.355 22.6614V20.7591L284.376 20.7379ZM275.75 30.2284C275.75 30.8414 275.857 31.4332 276.093 31.9616C276.329 32.4901 276.629 32.9551 277.016 33.3567C277.402 33.7583 277.874 34.0753 278.41 34.2867C278.947 34.4981 279.548 34.6249 280.17 34.6249C280.792 34.6249 281.35 34.5192 281.887 34.2867C282.423 34.0542 282.895 33.7583 283.282 33.3567C283.668 32.9551 283.99 32.5112 284.226 31.9828C284.462 31.4544 284.591 30.9048 284.591 30.313C284.591 29.7211 284.462 29.1504 284.226 28.622C283.99 28.0936 283.668 27.6286 283.282 27.227C282.895 26.8254 282.423 26.5083 281.887 26.2969C281.35 26.0644 280.771 25.9588 280.17 25.9588C279.569 25.9588 278.947 26.0644 278.41 26.2969C277.874 26.5295 277.402 26.8254 277.016 27.227C276.629 27.6286 276.307 28.0724 276.093 28.5797C275.857 29.087 275.75 29.6366 275.75 30.2284Z" fill="#162D4A"></path><path d="M294.848 20.7385H301.693V23.8668C302.423 22.7254 303.324 21.8588 304.376 21.2458C305.427 20.6328 306.672 20.3369 308.088 20.3369H308.667C308.882 20.3369 309.118 20.3581 309.397 20.4003V26.8471C308.496 26.4032 307.509 26.1707 306.457 26.1707C304.869 26.1707 303.667 26.6357 302.873 27.5657C302.079 28.4958 301.672 29.8485 301.672 31.6452V39.8463H294.826V20.7385H294.848Z" fill="#162D4A"></path><path d="M317.424 31.4128C317.424 34.3086 318.818 35.767 321.587 35.767C323.067 35.767 324.205 35.1752 324.956 33.9704H331.565C330.235 38.3457 326.887 40.5228 321.544 40.5228C319.913 40.5228 318.411 40.2903 317.037 39.8042C315.685 39.318 314.505 38.6417 313.539 37.7328C312.574 36.845 311.823 35.767 311.286 34.52C310.75 33.2729 310.492 31.899 310.492 30.356C310.492 28.813 310.75 27.3334 311.243 26.0652C311.758 24.7758 312.466 23.6978 313.389 22.8101C314.312 21.9223 315.449 21.2248 316.78 20.7387C318.11 20.2525 319.591 20.02 321.265 20.02C322.939 20.02 324.376 20.2525 325.685 20.7387C326.994 21.2248 328.11 21.9223 329.012 22.8312C329.913 23.7401 330.621 24.8815 331.093 26.2131C331.565 27.5448 331.801 29.0455 331.801 30.6942V31.3917H317.402L317.424 31.4128ZM325.449 27.5025C325.213 26.5513 324.763 25.8115 324.054 25.2197C323.346 24.649 322.488 24.3742 321.479 24.3742C320.428 24.3742 319.548 24.649 318.883 25.1986C318.218 25.7481 317.788 26.5091 317.617 27.5025H325.449Z" fill="#162D4A"></path><defs><linearGradient id="paint0_linear_147_2728" x1="53.0625" y1="37.8273" x2="53.0668" y2="36.4956" gradientUnits="userSpaceOnUse"><stop stop-color="#F9AF17"></stop><stop offset="1" stop-color="#EF7721"></stop></linearGradient><linearGradient id="paint1_linear_147_2728" x1="54.0115" y1="35.9128" x2="54.0149" y2="34.8771" gradientUnits="userSpaceOnUse"><stop stop-color="#F9AF17"></stop><stop offset="1" stop-color="#EF7721"></stop></linearGradient></defs></svg>