<svg id="visual" viewBox="0 0 1920 600" width="1920" height="600" xmlns="http://www.w3.org/2000/svg" xmlns:xlink="http://www.w3.org/1999/xlink" version="1.1"><path d="M0 127L40 133.5C80 140 160 153 240 151C320 149 400 132 480 120.3C560 108.7 640 102.3 720 117.5C800 132.7 880 169.3 960 187.2C1040 205 1120 204 1200 206.2C1280 208.3 1360 213.7 1440 226.7C1520 239.7 1600 260.3 1680 262.5C1760 264.7 1840 248.3 1880 240.2L1920 232L1920 0L1880 0C1840 0 1760 0 1680 0C1600 0 1520 0 1440 0C1360 0 1280 0 1200 0C1120 0 1040 0 960 0C880 0 800 0 720 0C640 0 560 0 480 0C400 0 320 0 240 0C160 0 80 0 40 0L0 0Z" fill="#1e1e1e"></path><path d="M0 99L40 104.2C80 109.3 160 119.7 240 128.2C320 136.7 400 143.3 480 142C560 140.7 640 131.3 720 127C800 122.7 880 123.3 960 118C1040 112.7 1120 101.3 1200 118.7C1280 136 1360 182 1440 182.5C1520 183 1600 138 1680 114.2C1760 90.3 1840 87.7 1880 86.3L1920 85L1920 0L1880 0C1840 0 1760 0 1680 0C1600 0 1520 0 1440 0C1360 0 1280 0 1200 0C1120 0 1040 0 960 0C880 0 800 0 720 0C640 0 560 0 480 0C400 0 320 0 240 0C160 0 80 0 40 0L0 0Z" fill="#1a1a1a"></path><path d="M0 102L40 95.8C80 89.7 160 77.3 240 84.8C320 92.3 400 119.7 480 132C560 144.3 640 141.7 720 141.5C800 141.3 880 143.7 960 145.8C1040 148 1120 150 1200 153.7C1280 157.3 1360 162.7 1440 151.3C1520 140 1600 112 1680 92.5C1760 73 1840 62 1880 56.5L1920 51L1920 0L1880 0C1840 0 1760 0 1680 0C1600 0 1520 0 1440 0C1360 0 1280 0 1200 0C1120 0 1040 0 960 0C880 0 800 0 720 0C640 0 560 0 480 0C400 0 320 0 240 0C160 0 80 0 40 0L0 0Z" fill="#161616"></path><path d="M0 102L40 97C80 92 160 82 240 72.8C320 63.7 400 55.3 480 50.3C560 45.3 640 43.7 720 40.5C800 37.3 880 32.7 960 40C1040 47.3 1120 66.7 1200 67.2C1280 67.7 1360 49.3 1440 41.3C1520 33.3 1600 35.7 1680 42.8C1760 50 1840 62 1880 68L1920 74L1920 0L1880 0C1840 0 1760 0 1680 0C1600 0 1520 0 1440 0C1360 0 1280 0 1200 0C1120 0 1040 0 960 0C880 0 800 0 720 0C640 0 560 0 480 0C400 0 320 0 240 0C160 0 80 0 40 0L0 0Z" fill="#121212"></path></svg>