<svg id="visual" viewBox="0 0 1920 600" width="1920" height="600" xmlns="http://www.w3.org/2000/svg" xmlns:xlink="http://www.w3.org/1999/xlink" version="1.1"><path d="M0 262L40 267C80 272 160 282 240 270.5C320 259 400 226 480 219.8C560 213.7 640 234.3 720 234.5C800 234.7 880 214.3 960 232.3C1040 250.3 1120 306.7 1200 347.7C1280 388.7 1360 414.3 1440 385.8C1520 357.3 1600 274.7 1680 254.5C1760 234.3 1840 276.7 1880 297.8L1920 319L1920 601L1880 601C1840 601 1760 601 1680 601C1600 601 1520 601 1440 601C1360 601 1280 601 1200 601C1120 601 1040 601 960 601C880 601 800 601 720 601C640 601 560 601 480 601C400 601 320 601 240 601C160 601 80 601 40 601L0 601Z" fill="#1e1e1e"></path><path d="M0 420L40 401.8C80 383.7 160 347.3 240 341.3C320 335.3 400 359.7 480 350.7C560 341.7 640 299.3 720 283.3C800 267.3 880 277.7 960 305.2C1040 332.7 1120 377.3 1200 382.2C1280 387 1360 352 1440 349.8C1520 347.7 1600 378.3 1680 370.2C1760 362 1840 315 1880 291.5L1920 268L1920 601L1880 601C1840 601 1760 601 1680 601C1600 601 1520 601 1440 601C1360 601 1280 601 1200 601C1120 601 1040 601 960 601C880 601 800 601 720 601C640 601 560 601 480 601C400 601 320 601 240 601C160 601 80 601 40 601L0 601Z" fill="#1c1c1c"></path><path d="M0 478L40 448.8C80 419.7 160 361.3 240 331.2C320 301 400 299 480 314.3C560 329.7 640 362.3 720 363.3C800 364.3 880 333.7 960 347.7C1040 361.7 1120 420.3 1200 433.2C1280 446 1360 413 1440 395.3C1520 377.7 1600 375.3 1680 374C1760 372.7 1840 372.3 1880 372.2L1920 372L1920 601L1880 601C1840 601 1760 601 1680 601C1600 601 1520 601 1440 601C1360 601 1280 601 1200 601C1120 601 1040 601 960 601C880 601 800 601 720 601C640 601 560 601 480 601C400 601 320 601 240 601C160 601 80 601 40 601L0 601Z" fill="#191919"></path><path d="M0 442L40 455C80 468 160 494 240 478.8C320 463.7 400 407.3 480 405.8C560 404.3 640 457.7 720 460.7C800 463.7 880 416.3 960 410C1040 403.7 1120 438.3 1200 436.7C1280 435 1360 397 1440 397.7C1520 398.3 1600 437.7 1680 438.2C1760 438.7 1840 400.3 1880 381.2L1920 362L1920 601L1880 601C1840 601 1760 601 1680 601C1600 601 1520 601 1440 601C1360 601 1280 601 1200 601C1120 601 1040 601 960 601C880 601 800 601 720 601C640 601 560 601 480 601C400 601 320 601 240 601C160 601 80 601 40 601L0 601Z" fill="#171717"></path><path d="M0 418L40 439.3C80 460.7 160 503.3 240 509.8C320 516.3 400 486.7 480 474C560 461.3 640 465.7 720 470.3C800 475 880 480 960 487.2C1040 494.3 1120 503.7 1200 499.2C1280 494.7 1360 476.3 1440 475.3C1520 474.3 1600 490.7 1680 505.2C1760 519.7 1840 532.3 1880 538.7L1920 545L1920 601L1880 601C1840 601 1760 601 1680 601C1600 601 1520 601 1440 601C1360 601 1280 601 1200 601C1120 601 1040 601 960 601C880 601 800 601 720 601C640 601 560 601 480 601C400 601 320 601 240 601C160 601 80 601 40 601L0 601Z" fill="#151515"></path><path d="M0 543L40 537.8C80 532.7 160 522.3 240 513.8C320 505.3 400 498.7 480 498.3C560 498 640 504 720 508.5C800 513 880 516 960 512C1040 508 1120 497 1200 490.8C1280 484.7 1360 483.3 1440 488.5C1520 493.7 1600 505.3 1680 510.2C1760 515 1840 513 1880 512L1920 511L1920 601L1880 601C1840 601 1760 601 1680 601C1600 601 1520 601 1440 601C1360 601 1280 601 1200 601C1120 601 1040 601 960 601C880 601 800 601 720 601C640 601 560 601 480 601C400 601 320 601 240 601C160 601 80 601 40 601L0 601Z" fill="#121212"></path></svg>