<svg id="visual" viewBox="0 0 1920 600" width="1920" height="600" xmlns="http://www.w3.org/2000/svg" xmlns:xlink="http://www.w3.org/1999/xlink" version="1.1"><path d="M0 318L40 344.7C80 371.3 160 424.7 240 430.2C320 435.7 400 393.3 480 395.8C560 398.3 640 445.7 720 461.3C800 477 880 461 960 433.7C1040 406.3 1120 367.7 1200 364.8C1280 362 1360 395 1440 424.8C1520 454.7 1600 481.3 1680 480.8C1760 480.3 1840 452.7 1880 438.8L1920 425L1920 601L1880 601C1840 601 1760 601 1680 601C1600 601 1520 601 1440 601C1360 601 1280 601 1200 601C1120 601 1040 601 960 601C880 601 800 601 720 601C640 601 560 601 480 601C400 601 320 601 240 601C160 601 80 601 40 601L0 601Z" fill="#1e1e1e"></path><path d="M0 396L40 400.3C80 404.7 160 413.3 240 431.7C320 450 400 478 480 471C560 464 640 422 720 398.8C800 375.7 880 371.3 960 378.8C1040 386.3 1120 405.7 1200 423.2C1280 440.7 1360 456.3 1440 464.5C1520 472.7 1600 473.3 1680 473.2C1760 473 1840 472 1880 471.5L1920 471L1920 601L1880 601C1840 601 1760 601 1680 601C1600 601 1520 601 1440 601C1360 601 1280 601 1200 601C1120 601 1040 601 960 601C880 601 800 601 720 601C640 601 560 601 480 601C400 601 320 601 240 601C160 601 80 601 40 601L0 601Z" fill="#1a1a1a"></path><path d="M0 484L40 493.7C80 503.3 160 522.7 240 529C320 535.3 400 528.7 480 509.7C560 490.7 640 459.3 720 446.7C800 434 880 440 960 456.5C1040 473 1120 500 1200 500.2C1280 500.3 1360 473.7 1440 457.7C1520 441.7 1600 436.3 1680 445.8C1760 455.3 1840 479.7 1880 491.8L1920 504L1920 601L1880 601C1840 601 1760 601 1680 601C1600 601 1520 601 1440 601C1360 601 1280 601 1200 601C1120 601 1040 601 960 601C880 601 800 601 720 601C640 601 560 601 480 601C400 601 320 601 240 601C160 601 80 601 40 601L0 601Z" fill="#161616"></path><path d="M0 561L40 559.2C80 557.3 160 553.7 240 545.8C320 538 400 526 480 522.8C560 519.7 640 525.3 720 522.5C800 519.7 880 508.3 960 506.5C1040 504.7 1120 512.3 1200 515.8C1280 519.3 1360 518.7 1440 517.7C1520 516.7 1600 515.3 1680 510.3C1760 505.3 1840 496.7 1880 492.3L1920 488L1920 601L1880 601C1840 601 1760 601 1680 601C1600 601 1520 601 1440 601C1360 601 1280 601 1200 601C1120 601 1040 601 960 601C880 601 800 601 720 601C640 601 560 601 480 601C400 601 320 601 240 601C160 601 80 601 40 601L0 601Z" fill="#121212"></path></svg>