<svg id="visual" viewBox="0 0 1920 600" width="1920" height="600" xmlns="http://www.w3.org/2000/svg" xmlns:xlink="http://www.w3.org/1999/xlink" version="1.1"><path d="M0 335L40 324C80 313 160 291 240 297C320 303 400 337 480 357C560 377 640 383 720 403.2C800 423.3 880 457.7 960 452.7C1040 447.7 1120 403.3 1200 396.7C1280 390 1360 421 1440 411.8C1520 402.7 1600 353.3 1680 337.2C1760 321 1840 338 1880 346.5L1920 355L1920 601L1880 601C1840 601 1760 601 1680 601C1600 601 1520 601 1440 601C1360 601 1280 601 1200 601C1120 601 1040 601 960 601C880 601 800 601 720 601C640 601 560 601 480 601C400 601 320 601 240 601C160 601 80 601 40 601L0 601Z" fill="#1e1e1e"></path><path d="M0 389L40 388C80 387 160 385 240 380.8C320 376.7 400 370.3 480 388.8C560 407.3 640 450.7 720 448.7C800 446.7 880 399.3 960 397C1040 394.7 1120 437.3 1200 443.5C1280 449.7 1360 419.3 1440 396.2C1520 373 1600 357 1680 369.2C1760 381.3 1840 421.7 1880 441.8L1920 462L1920 601L1880 601C1840 601 1760 601 1680 601C1600 601 1520 601 1440 601C1360 601 1280 601 1200 601C1120 601 1040 601 960 601C880 601 800 601 720 601C640 601 560 601 480 601C400 601 320 601 240 601C160 601 80 601 40 601L0 601Z" fill="#1b1b1b"></path><path d="M0 487L40 487.7C80 488.3 160 489.7 240 481.8C320 474 400 457 480 443C560 429 640 418 720 429.2C800 440.3 880 473.7 960 488.5C1040 503.3 1120 499.7 1200 503.2C1280 506.7 1360 517.3 1440 515.7C1520 514 1600 500 1680 483.3C1760 466.7 1840 447.3 1880 437.7L1920 428L1920 601L1880 601C1840 601 1760 601 1680 601C1600 601 1520 601 1440 601C1360 601 1280 601 1200 601C1120 601 1040 601 960 601C880 601 800 601 720 601C640 601 560 601 480 601C400 601 320 601 240 601C160 601 80 601 40 601L0 601Z" fill="#181818"></path><path d="M0 440L40 453.7C80 467.3 160 494.7 240 499.7C320 504.7 400 487.3 480 473.5C560 459.7 640 449.3 720 448.8C800 448.3 880 457.7 960 458C1040 458.3 1120 449.7 1200 463C1280 476.3 1360 511.7 1440 520.2C1520 528.7 1600 510.3 1680 492C1760 473.7 1840 455.3 1880 446.2L1920 437L1920 601L1880 601C1840 601 1760 601 1680 601C1600 601 1520 601 1440 601C1360 601 1280 601 1200 601C1120 601 1040 601 960 601C880 601 800 601 720 601C640 601 560 601 480 601C400 601 320 601 240 601C160 601 80 601 40 601L0 601Z" fill="#151515"></path><path d="M0 566L40 555.2C80 544.3 160 522.7 240 515.8C320 509 400 517 480 523.2C560 529.3 640 533.7 720 533.3C800 533 880 528 960 522.7C1040 517.3 1120 511.7 1200 518.2C1280 524.7 1360 543.3 1440 542C1520 540.7 1600 519.3 1680 514.2C1760 509 1840 520 1880 525.5L1920 531L1920 601L1880 601C1840 601 1760 601 1680 601C1600 601 1520 601 1440 601C1360 601 1280 601 1200 601C1120 601 1040 601 960 601C880 601 800 601 720 601C640 601 560 601 480 601C400 601 320 601 240 601C160 601 80 601 40 601L0 601Z" fill="#121212"></path></svg>