<svg id="visual" viewBox="0 0 1920 600" width="1920" height="600" xmlns="http://www.w3.org/2000/svg" xmlns:xlink="http://www.w3.org/1999/xlink" version="1.1"><path d="M0 377L40 392.5C80 408 160 439 240 430.3C320 421.7 400 373.3 480 345C560 316.7 640 308.3 720 279.7C800 251 880 202 960 209C1040 216 1120 279 1200 288.3C1280 297.7 1360 253.3 1440 266.3C1520 279.3 1600 349.7 1680 372.8C1760 396 1840 372 1880 360L1920 348L1920 0L1880 0C1840 0 1760 0 1680 0C1600 0 1520 0 1440 0C1360 0 1280 0 1200 0C1120 0 1040 0 960 0C880 0 800 0 720 0C640 0 560 0 480 0C400 0 320 0 240 0C160 0 80 0 40 0L0 0Z" fill="#1e1e1e"></path><path d="M0 299L40 300.3C80 301.7 160 304.3 240 310.3C320 316.3 400 325.7 480 299.3C560 273 640 211 720 213.8C800 216.7 880 284.3 960 287.5C1040 290.7 1120 229.3 1200 220.5C1280 211.7 1360 255.3 1440 288.7C1520 322 1600 345 1680 327.7C1760 310.3 1840 252.7 1880 223.8L1920 195L1920 0L1880 0C1840 0 1760 0 1680 0C1600 0 1520 0 1440 0C1360 0 1280 0 1200 0C1120 0 1040 0 960 0C880 0 800 0 720 0C640 0 560 0 480 0C400 0 320 0 240 0C160 0 80 0 40 0L0 0Z" fill="#1b1b1b"></path><path d="M0 159L40 158.2C80 157.3 160 155.7 240 166.8C320 178 400 202 480 222C560 242 640 258 720 242.2C800 226.3 880 178.7 960 157.5C1040 136.3 1120 141.7 1200 136.5C1280 131.3 1360 115.7 1440 118C1520 120.3 1600 140.7 1680 164.7C1760 188.7 1840 216.3 1880 230.2L1920 244L1920 0L1880 0C1840 0 1760 0 1680 0C1600 0 1520 0 1440 0C1360 0 1280 0 1200 0C1120 0 1040 0 960 0C880 0 800 0 720 0C640 0 560 0 480 0C400 0 320 0 240 0C160 0 80 0 40 0L0 0Z" fill="#181818"></path><path d="M0 227L40 207.5C80 188 160 149 240 141.8C320 134.7 400 159.3 480 179C560 198.7 640 213.3 720 214C800 214.7 880 201.3 960 200.7C1040 200 1120 212 1200 192.8C1280 173.7 1360 123.3 1440 111.2C1520 99 1600 125 1680 151.2C1760 177.3 1840 203.7 1880 216.8L1920 230L1920 0L1880 0C1840 0 1760 0 1680 0C1600 0 1520 0 1440 0C1360 0 1280 0 1200 0C1120 0 1040 0 960 0C880 0 800 0 720 0C640 0 560 0 480 0C400 0 320 0 240 0C160 0 80 0 40 0L0 0Z" fill="#151515"></path><path d="M0 45L40 60.8C80 76.7 160 108.3 240 118.3C320 128.3 400 116.7 480 107.8C560 99 640 93 720 93.3C800 93.7 880 100.3 960 107.8C1040 115.3 1120 123.7 1200 114.5C1280 105.3 1360 78.7 1440 80.5C1520 82.3 1600 112.7 1680 120C1760 127.3 1840 111.7 1880 103.8L1920 96L1920 0L1880 0C1840 0 1760 0 1680 0C1600 0 1520 0 1440 0C1360 0 1280 0 1200 0C1120 0 1040 0 960 0C880 0 800 0 720 0C640 0 560 0 480 0C400 0 320 0 240 0C160 0 80 0 40 0L0 0Z" fill="#121212"></path></svg>