<svg id="visual" viewBox="0 0 1920 600" width="1920" height="600" xmlns="http://www.w3.org/2000/svg" xmlns:xlink="http://www.w3.org/1999/xlink" version="1.1"><path d="M0 122L40 134.2C80 146.3 160 170.7 240 191C320 211.3 400 227.7 480 248C560 268.3 640 292.7 720 276.7C800 260.7 880 204.3 960 178.3C1040 152.3 1120 156.7 1200 155.7C1280 154.7 1360 148.3 1440 163.7C1520 179 1600 216 1680 213.7C1760 211.3 1840 169.7 1880 148.8L1920 128L1920 0L1880 0C1840 0 1760 0 1680 0C1600 0 1520 0 1440 0C1360 0 1280 0 1200 0C1120 0 1040 0 960 0C880 0 800 0 720 0C640 0 560 0 480 0C400 0 320 0 240 0C160 0 80 0 40 0L0 0Z" fill="#1e1e1e"></path><path d="M0 260L40 238.7C80 217.3 160 174.7 240 169.2C320 163.7 400 195.3 480 198.3C560 201.3 640 175.7 720 157.8C800 140 880 130 960 141C1040 152 1120 184 1200 201C1280 218 1360 220 1440 221.2C1520 222.3 1600 222.7 1680 215.3C1760 208 1840 193 1880 185.5L1920 178L1920 0L1880 0C1840 0 1760 0 1680 0C1600 0 1520 0 1440 0C1360 0 1280 0 1200 0C1120 0 1040 0 960 0C880 0 800 0 720 0C640 0 560 0 480 0C400 0 320 0 240 0C160 0 80 0 40 0L0 0Z" fill="#1a1a1a"></path><path d="M0 102L40 99C80 96 160 90 240 104.5C320 119 400 154 480 157.2C560 160.3 640 131.7 720 120.8C800 110 880 117 960 112.7C1040 108.3 1120 92.7 1200 105C1280 117.3 1360 157.7 1440 165.2C1520 172.7 1600 147.3 1680 130.2C1760 113 1840 104 1880 99.5L1920 95L1920 0L1880 0C1840 0 1760 0 1680 0C1600 0 1520 0 1440 0C1360 0 1280 0 1200 0C1120 0 1040 0 960 0C880 0 800 0 720 0C640 0 560 0 480 0C400 0 320 0 240 0C160 0 80 0 40 0L0 0Z" fill="#161616"></path><path d="M0 104L40 108.5C80 113 160 122 240 122.7C320 123.3 400 115.7 480 100.5C560 85.3 640 62.7 720 61.7C800 60.7 880 81.3 960 91.8C1040 102.3 1120 102.7 1200 106.2C1280 109.7 1360 116.3 1440 113.3C1520 110.3 1600 97.7 1680 84C1760 70.3 1840 55.7 1880 48.3L1920 41L1920 0L1880 0C1840 0 1760 0 1680 0C1600 0 1520 0 1440 0C1360 0 1280 0 1200 0C1120 0 1040 0 960 0C880 0 800 0 720 0C640 0 560 0 480 0C400 0 320 0 240 0C160 0 80 0 40 0L0 0Z" fill="#121212"></path></svg>